PathFileType	4	(X/Y/Z)	C:/Users/opensim2020/Desktop/walking_exp_matlab/subject06_walking14_straight_04.trc	
DataRate	CameraRate	NumFrames	NumMarkers	Units	OrigDataRate	OrigDataStartFrame	OrigNumFrames	
100.00	100.00	7	45	mm	100.00	3002	227	
Frame#	Time	LFHD			RFHD			LBHD			RBHD			C7			T10			CLAV			STRN			RBAK			LSHO			LUPA			LELB			LFRM			LWRA			LWRB			LFIN			RSHO			RUPA			RELB			RFRM			RWRA			RWRB			RFIN			LASI			RASI			LPSI			RPSI			LTHI			LKNE			LTIB			LANK			LHEE			LTOE			RTHI			RKNE			RTIB			RANK			RHEE			RTOE			*39			*40			*41			*42			*43			*44			
		X1	Y1	Z1	X2	Y2	Z2	X3	Y3	Z3	X4	Y4	Z4	X5	Y5	Z5	X6	Y6	Z6	X7	Y7	Z7	X8	Y8	Z8	X9	Y9	Z9	X10	Y10	Z10	X11	Y11	Z11	X12	Y12	Z12	X13	Y13	Z13	X14	Y14	Z14	X15	Y15	Z15	X16	Y16	Z16	X17	Y17	Z17	X18	Y18	Z18	X19	Y19	Z19	X20	Y20	Z20	X21	Y21	Z21	X22	Y22	Z22	X23	Y23	Z23	X24	Y24	Z24	X25	Y25	Z25	X26	Y26	Z26	X27	Y27	Z27	X28	Y28	Z28	X29	Y29	Z29	X30	Y30	Z30	X31	Y31	Z31	X32	Y32	Z32	X33	Y33	Z33	X34	Y34	Z34	X35	Y35	Z35	X36	Y36	Z36	X37	Y37	Z37	X38	Y38	Z38	X39	Y39	Z39	X40	Y40	Z40	X41	Y41	Z41	X42	Y42	Z42	X43	Y43	Z43	X44	Y44	Z44	X45	Y45	Z45	

86	0.850	-922.77997	278.13855	1648.81970	-1054.93835	270.52698	1642.12451	-931.42438	409.01648	1589.38184	-1060.46790	399.62088	1587.84375	-992.27924	402.76782	1433.76697	-1008.41437	429.03812	1103.03369	-991.55530	289.44373	1360.70740	-994.12756	243.48592	1186.49268	-1079.18359	471.95306	1266.03467	-830.71301	356.16742	1383.31714	-769.44867	404.82828	1187.41248	-768.01135	440.97742	1079.86340	-752.64868	463.11371	930.29352	-800.51080	440.01907	804.28986	-761.05194	498.69400	817.30981	-767.62561	487.55072	726.30725	-1153.34155	332.02298	1395.56006	-1248.64392	339.16321	1198.32983	-1266.87927	300.45285	1083.55688	-1279.67285	230.77892	987.29523	-1242.37646	107.36224	907.55273	-1274.96387	153.86421	873.13544	-1275.38977	81.63748	831.14124	-905.85913	242.90475	954.09760	-1123.53992	255.23755	950.80719	-919.13696	402.06287	970.29175	-1087.53088	405.63574	970.99591	-838.32935	243.82047	640.58759	-867.11487	195.80316	487.36154	-878.67126	177.32088	230.89903	-923.18915	149.64317	63.07253	-972.69202	183.26935	46.68732	-917.90833	4.37745	49.84747	-1164.92883	334.49411	612.15430	-1144.83362	347.73285	484.81052	-1132.08850	528.39728	282.24506	-1084.52820	652.20990	145.66159	-1041.09521	697.47443	153.22678	-1070.57422	554.52753	29.36884	-986.72162	376.17566	1685.46814															 
87	0.860	-921.79248	266.99344	1649.80591	-1053.93567	259.88745	1643.09790	-930.03522	397.97641	1590.73743	-1059.08154	389.14731	1589.24329	-990.99731	391.93008	1434.99817	-1007.66840	417.75140	1104.18970	-990.84698	278.63065	1361.98730	-993.89594	233.21143	1187.70178	-1077.78003	461.06171	1267.30469	-829.69849	344.14999	1384.32288	-768.17236	391.06372	1187.86426	-766.53699	426.48041	1080.10059	-751.22852	447.25467	930.35602	-799.71741	424.58008	804.58337	-759.31537	482.47488	817.19354	-766.38446	471.30084	726.26862	-1152.37195	321.60834	1397.04761	-1247.19788	330.45773	1199.58081	-1265.30688	292.47412	1084.44421	-1278.36914	224.25375	986.97418	-1241.51819	102.17846	905.07715	-1274.13025	149.36099	871.51862	-1274.79041	77.84641	828.35516	-905.16553	230.49957	956.36420	-1122.65356	243.36522	952.02600	-919.27179	390.19232	972.13385	-1087.24548	393.50500	971.52539	-837.19403	233.68484	642.73242	-865.98541	187.46397	488.08121	-877.35986	173.55960	231.01108	-922.69806	148.68143	62.81837	-971.98877	183.00070	47.45488	-918.33582	2.99299	46.02186	-1165.63611	318.77127	612.17743	-1146.75916	329.22546	484.56573	-1131.91504	513.48492	286.61731	-1083.58057	640.91052	154.49472	-1039.16760	684.01868	164.65939	-1069.81384	553.59296	29.39677	-985.38226	365.16470	1686.78003															 
88	0.870	-920.80383	255.91704	1650.58496	-1053.00073	249.28847	1644.08228	-928.76898	387.25961	1592.06934	-1057.70935	378.68719	1590.62305	-989.73016	381.21747	1435.90295	-1006.85370	406.47116	1105.39832	-990.24121	267.89496	1363.14075	-993.51843	221.90996	1189.11609	-1076.59009	450.10205	1268.46924	-828.81628	332.15128	1385.48328	-766.79633	377.04233	1188.54382	-765.04102	411.69409	1080.62244	-749.68152	431.08228	930.70465	-798.99689	408.73932	805.26898	-757.05597	465.50391	817.29755	-764.88745	453.99429	726.32263	-1151.34473	311.43945	1398.65784	-1245.74292	321.68256	1201.04199	-1263.47021	284.67645	1085.52759	-1276.99170	218.10603	986.88074	-1240.59131	97.68355	902.38867	-1273.31714	145.38873	869.91650	-1274.27942	74.78288	825.39240	-904.40613	218.54060	958.46832	-1121.57422	231.55368	953.38177	-919.14508	378.31033	973.83459	-1086.79407	381.42313	972.08807	-836.08240	223.62222	644.38580	-864.58521	179.37086	488.57599	-876.64789	170.16273	231.43597	-922.42688	146.91045	62.77150	-971.49548	182.10991	48.28998	-918.75183	0.87014	43.39434	-1166.64893	302.51804	612.20331	-1148.83704	310.15445	484.42267	-1132.11536	497.45898	291.21881	-1083.26746	628.05554	163.16296	-1037.99243	669.04633	175.74014	-1069.11438	551.79651	29.99679	-983.97815	354.18246	1687.98889															 
89	0.880	-919.74200	245.00510	1651.21277	-1051.97083	238.71744	1644.98608	-927.43958	376.40912	1592.91992	-1056.45862	368.24283	1591.83557	-988.65796	370.67645	1436.52576	-1006.17877	395.17374	1106.47632	-989.68323	256.98898	1364.20532	-993.23468	210.51698	1190.43945	-1075.53162	439.20938	1269.38867	-828.07068	320.24371	1386.69092	-765.69873	363.18130	1189.35461	-763.45239	396.61584	1081.18823	-748.25348	414.24915	930.99579	-797.88971	391.67029	805.86816	-754.83643	447.67853	817.34528	-763.26831	435.77768	726.36597	-1150.28235	301.46057	1400.21191	-1244.44031	313.01715	1202.53503	-1261.60510	277.12720	1086.63171	-1275.65552	212.30153	986.72607	-1239.90833	93.24739	899.77954	-1272.55640	141.97350	868.27539	-1273.77637	72.28565	822.20300	-903.43658	206.87941	960.30560	-1120.33936	219.90155	954.54364	-918.92969	366.74329	975.53583	-1086.16846	369.65396	972.66901	-835.08020	213.79591	645.56500	-863.06201	171.63351	489.04688	-875.76483	165.58955	231.67882	-922.44849	145.27437	62.64796	-971.08215	181.15054	48.75475	-919.17139	-0.66080	41.04842	-1167.55823	286.01788	612.18207	-1150.83374	291.02341	484.30688	-1133.05371	480.57147	295.84485	-1083.86182	614.14722	170.91621	-1037.78723	653.36017	186.13632	-1068.89136	548.24316	31.63179	-982.55774	343.29330	1689.00513															 
90	0.890	-918.69196	234.27754	1651.75513	-1050.95605	228.26251	1645.86023	-926.46857	365.63333	1593.66589	-1055.32507	357.93057	1592.94934	-987.56549	360.18332	1436.94165	-1005.60565	384.26157	1107.58459	-989.23273	246.27812	1365.07605	-993.01782	199.13512	1191.61267	-1074.46179	428.33569	1270.04846	-827.43927	308.25543	1387.88721	-764.47491	349.19806	1190.19702	-761.80115	381.55496	1081.80847	-746.15826	397.26563	931.44836	-796.61395	373.80630	806.30914	-752.45831	429.05124	817.35272	-761.40436	416.68668	726.36884	-1149.34814	291.63220	1401.61890	-1243.28967	304.15707	1203.96863	-1259.83582	269.85950	1087.58948	-1274.38916	206.86488	986.43958	-1239.14343	89.38633	896.84052	-1271.89526	138.89433	866.46667	-1273.27856	70.25040	818.79761	-902.36560	195.54776	961.69904	-1119.17346	208.66602	955.56067	-918.41608	355.14713	976.94714	-1085.45056	357.94354	973.09045	-834.23413	204.51163	646.37646	-861.99854	164.59468	489.28104	-875.00977	160.42574	231.48683	-922.67767	144.30516	62.60089	-970.86206	179.78763	48.48312	-919.50995	-1.80771	39.12240	-1168.18665	269.77914	612.16205	-1152.56177	272.17529	484.26407	-1134.50232	462.89133	300.35129	-1085.14404	599.68085	178.59477	-1038.95911	637.14362	196.60435	-1069.12842	543.15289	35.10388	-981.20612	332.66589	1689.86218															 
91	0.900	-917.63702	223.60928	1652.39233	-1050.00000	217.84250	1646.83850	-925.28967	355.22903	1594.39453	-1054.24951	347.45993	1593.94983	-986.60199	349.62030	1437.42627	-1004.76093	372.87250	1108.27429	-988.77637	235.24675	1366.08325	-992.79224	187.91805	1192.65674	-1073.46912	417.51572	1270.49670	-826.86719	296.43179	1388.99414	-763.16205	335.26285	1191.01599	-760.08527	366.54245	1082.30920	-744.13495	379.89185	931.77655	-795.02643	355.36548	806.87585	-749.96509	410.07086	817.19385	-759.50922	396.55551	726.23749	-1148.56519	281.93835	1402.81763	-1242.37756	295.52576	1205.23645	-1258.29553	262.92459	1088.28906	-1273.24438	201.76163	985.89459	-1238.49939	85.97131	893.52100	-1271.31067	136.12309	864.50525	-1272.94495	68.41146	815.27637	-901.22711	184.36807	962.70709	-1118.05701	197.97610	956.17249	-917.83453	343.88226	978.27142	-1084.90515	346.55273	973.48297	-833.41541	195.71663	647.09564	-861.09558	158.15056	489.29025	-874.56323	156.00867	230.94556	-922.97351	143.49860	62.59999	-971.11328	179.96468	49.25980	-919.92072	-2.52861	37.88752	-1168.58716	253.96155	612.13031	-1153.96301	253.44603	484.31061	-1136.03857	444.52133	304.47757	-1086.76599	584.24353	186.52315	-1040.70972	619.94073	207.24799	-1069.54187	537.30646	39.17841	-979.92267	322.21304	1690.76819															 
92	0.910	-916.69415	213.18433	1653.23193	-1049.06104	207.57260	1647.99890	-924.35095	344.71799	1595.02039	-1053.30969	337.15948	1594.91565	-985.74072	339.04785	1438.08740	-1003.94739	361.57120	1108.89661	-988.47784	224.51559	1367.02393	-992.52991	176.85469	1193.64075	-1072.35791	406.96393	1270.92212	-826.28455	284.73007	1390.00745	-761.66498	321.12247	1191.67615	-758.17102	351.29025	1082.59033	-742.07318	362.34268	931.83282	-793.22925	336.31857	807.48041	-747.56531	390.51151	816.83752	-757.25928	376.11014	726.11230	-1148.03101	272.16861	1403.77209	-1241.63586	287.06033	1206.10071	-1257.09192	256.21973	1088.62903	-1272.20544	196.93425	985.03717	-1237.94836	82.53764	890.18665	-1270.80042	133.55629	862.36902	-1272.46606	66.97073	811.40515	-900.12494	173.39815	963.50513	-1117.27759	186.20894	956.97168	-917.18665	332.87424	979.38654	-1084.34497	335.48212	973.88220	-832.77136	187.49808	647.70453	-860.38898	152.24416	489.17258	-874.08270	152.73114	230.65688	-923.21893	142.62094	62.58298	-971.07703	179.60329	49.52393	-920.59290	-3.36029	37.06527	-1168.83337	238.49655	612.16370	-1154.93555	234.43980	484.49146	-1137.60889	425.59863	308.22836	-1088.54260	568.06201	194.20222	-1042.96606	602.48022	217.35243	-1070.58899	528.93280	44.31594	-978.77966	311.83673	1691.46741															 
